<svg width="24" height="24" viewBox="0 0 24 24" fill="none" xmlns="http://www.w3.org/2000/svg">
<path d="M4.23154 19.7086L21.6394 12.6688C21.7476 12.6151 21.839 12.5324 21.9032 12.43C21.9675 12.3277 22.002 12.2097 22.0028 12.0896C22.0037 11.9695 21.9709 11.8521 21.9081 11.7506C21.8453 11.6491 21.755 11.5677 21.6476 11.5156L4.4536 4.74214C3.92107 4.53048 3.3444 4.78647 3.01959 5.16792C2.71779 5.52375 2.53704 6.07136 2.84254 6.55188L6.8587 12.198L2.70465 18.0827C2.64099 19.0726 3.30501 19.7367 4.23154 19.7086ZM18.1943 11.4954L7.94136 11.5667L4.00432 6.02624C4.06684 5.99683 4.1135 5.97631 4.15658 5.9646L18.1943 11.4954ZM18.1846 12.7356L4.09037 18.4589C4.02465 18.4454 3.99872 18.3894 3.96794 18.3365L7.93336 12.8121L18.1846 12.7356Z" fill="white"/>
</svg>
