<svg width="53" height="53" viewBox="0 0 53 53" fill="none" xmlns="http://www.w3.org/2000/svg">
<circle cx="26.3956" cy="26.3956" r="25.8956" transform="matrix(-1 0 0 1 52.7911 0)" fill="white" stroke="#F7C44D"/>
<path d="M42.695 26.352C42.8801 17.53 35.3342 10.0097 26.286 10.0927C17.5139 10.1742 9.98368 17.3342 10.0919 26.5729C10.1954 35.3886 17.2002 42.6567 26.4099 42.6974C35.5224 42.7397 42.8879 35.2147 42.695 26.352ZM26.3158 12.6475C26.4617 12.7415 26.4711 12.8527 26.4977 12.9483C26.8631 14.2923 27.2253 15.6378 27.586 16.9833C28.1349 19.0322 28.6853 21.0811 29.2294 23.1315C29.2906 23.3602 29.416 23.4839 29.6418 23.545C30.7897 23.8505 31.9329 24.1669 33.0808 24.4739C35.3122 25.0691 37.5453 25.6581 39.7783 26.2518C39.9069 26.2862 40.0464 26.3175 40.1578 26.4617C39.6732 26.5948 39.2232 26.7217 38.7731 26.8423C35.7356 27.6521 32.6966 28.4635 29.656 29.2655C29.4207 29.3282 29.2984 29.4519 29.2404 29.6743C29.1197 30.1411 28.9958 30.6064 28.8703 31.0716C28.0894 33.9757 27.3085 36.8798 26.526 39.7824C26.493 39.9014 26.4962 40.0439 26.3613 40.1144C26.2453 40.0768 26.25 39.975 26.2264 39.8904C25.4079 36.8219 24.5815 33.7548 23.7754 30.6831C23.4305 29.3705 23.4493 29.3658 22.1273 29.0165C19.4035 28.2943 16.6781 27.5754 13.9542 26.8501C13.5026 26.7295 13.0541 26.5932 12.5711 26.4554C12.7358 26.2862 12.8973 26.2721 13.0447 26.233C13.7519 26.0466 14.4591 25.8664 15.1648 25.6769C17.7852 24.9736 20.4039 24.264 23.0259 23.5669C23.2987 23.4949 23.443 23.3602 23.5089 23.0814C23.6547 22.4611 23.8319 21.8486 23.9966 21.2314C24.5031 19.3455 25.008 17.4611 25.5161 15.5767C25.7764 14.6118 26.0414 13.6469 26.3127 12.6491L26.3158 12.6475ZM20.8901 21.4131C20.7395 21.3787 20.6549 21.2816 20.5623 21.1891C20.0778 20.702 19.6058 20.2023 19.0993 19.7386C18.8829 19.5413 18.9252 19.4113 19.1149 19.2844C19.2921 19.1653 19.3847 18.7471 19.7202 19.0839C20.233 19.5992 20.7505 20.1099 21.2633 20.6252C21.3636 20.7255 21.486 20.8398 21.3668 20.9933C21.2335 21.1641 21.1018 21.3458 20.8885 21.4131H20.8901ZM31.3151 31.7874C31.4201 31.6042 31.5769 31.446 31.762 31.3285C31.9188 31.2298 32.0348 31.3802 32.1289 31.4726C32.6417 31.9707 33.1404 32.4829 33.6547 32.9795C33.9182 33.2348 33.6798 33.3648 33.5355 33.5136C33.3897 33.6624 33.2674 33.8801 33.0102 33.606C32.5115 33.0781 31.9831 32.5785 31.4703 32.0647C31.3997 31.9942 31.3151 31.9221 31.3166 31.7874H31.3151ZM31.3103 20.8837C31.3307 20.7537 31.4185 20.6895 31.4907 20.6158C31.9878 20.1193 32.4959 19.6337 32.9788 19.123C33.1937 18.8959 33.3348 18.9366 33.5136 19.145C33.6814 19.3408 33.9197 19.4849 33.6061 19.7731C33.0996 20.2415 32.626 20.7443 32.1352 21.2283C32.0395 21.3223 31.9392 21.4852 31.7777 21.374C31.5879 21.2424 31.4107 21.0873 31.3119 20.8806L31.3103 20.8837ZM20.8446 31.2815C21.0735 31.3927 21.2257 31.5728 21.3636 31.7577C21.4703 31.9002 21.337 31.9989 21.2476 32.0882C20.7427 32.5957 20.2236 33.0922 19.7297 33.6092C19.4709 33.8801 19.3345 33.689 19.1604 33.523C18.9754 33.3476 18.8311 33.2097 19.1008 32.9607C19.6262 32.4735 20.1185 31.955 20.6282 31.4507C20.6909 31.388 20.7678 31.341 20.8446 31.2815Z" fill="#F7C44D"/>
</svg>
