<svg width="53" height="53" viewBox="0 0 53 53" fill="none" xmlns="http://www.w3.org/2000/svg">
<path d="M15.4671 14.5239C15.6887 13.678 15.2665 13.1149 14.657 12.5725C13.8376 11.8441 13.0803 11.0486 12.294 10.2853C12.2056 10.2001 12.1264 10.0413 11.9773 10.1084C11.8335 10.173 11.8942 10.3383 11.8929 10.4597C11.8863 10.9427 11.881 11.4257 11.8929 11.9087C11.8995 12.1593 11.8032 12.2535 11.5472 12.2471C11.0314 12.2354 10.5155 12.2432 9.99962 12.2471C9.90331 12.2471 9.78588 12.2238 9.73179 12.3258C9.66714 12.4472 9.77137 12.526 9.84657 12.5996C10.8783 13.6096 11.9114 14.6169 12.9431 15.6281C13.0605 15.743 13.1925 15.7921 13.3561 15.7908C13.9379 15.7882 14.5198 15.7844 15.1016 15.7921C15.3694 15.796 15.4802 15.6849 15.471 15.4253C15.4605 15.1257 15.4684 14.8248 15.4684 14.5239H15.4671Z" fill="#E2344B"/>
<path d="M25.8308 26.1011C25.007 25.3134 24.1789 24.5329 23.3625 23.7396C20.9424 21.3895 18.5281 19.0337 16.111 16.6808C15.7385 16.319 15.7385 16.3233 15.3924 16.7093C13.6894 18.5993 12.5765 20.7771 12.0069 23.2269C11.614 24.9203 11.5468 26.6366 11.7776 28.3443C12.0799 30.5776 12.8744 32.6557 14.1641 34.5386C15.6319 36.6807 17.5379 38.3471 19.8879 39.5279C21.0592 40.1161 22.2919 40.5434 23.5845 40.814C25.3765 41.1886 27.1774 41.2456 28.9826 40.9878C31.7386 40.5947 34.2069 39.5393 36.3597 37.813C38.3299 36.2335 39.8182 34.3036 40.7763 31.992C41.2232 30.9138 41.5226 29.8042 41.7242 28.6548C41.9608 27.3089 41.9798 25.9672 41.8118 24.6298C41.6351 23.2197 41.2656 21.8453 40.6741 20.5378C39.862 18.7403 38.7447 17.1423 37.29 15.7835C35.5695 14.1769 33.5715 13.0189 31.2887 12.3225C29.742 11.8496 28.1588 11.6117 26.5493 11.6488C23.5377 11.7171 20.7598 12.5518 18.2609 14.2168C17.6679 14.6113 17.1173 15.0571 16.5769 15.5172C16.349 15.7109 16.3344 15.8561 16.5506 16.0684C18.1148 17.5909 19.6673 19.1235 21.2301 20.6489C22.86 22.2412 24.4944 23.8279 26.1287 25.416C26.2704 25.5541 26.4135 25.7792 26.6384 25.6752C26.9101 25.5499 27.1379 25.332 27.2635 25.0571C27.3263 24.9203 27.1701 24.8263 27.0795 24.7366C26.5654 24.2324 26.0498 23.7296 25.5313 23.2297C25.3371 23.0431 25.3313 22.9363 25.6263 22.8494C28.1486 22.1002 30.633 23.9162 30.5833 26.4814C30.5395 28.6805 28.4071 30.3526 26.1754 30.0122C24.1365 29.7003 22.5767 27.7063 23.0952 25.5128C23.1814 25.1482 23.3274 24.7922 23.5348 24.466C23.659 24.2694 23.7583 24.2652 23.9218 24.4275C24.4389 24.9445 24.969 25.4516 25.4934 25.9629C25.5781 26.0441 25.6672 26.121 25.7533 26.1994C25.7796 26.1694 25.8059 26.1395 25.8322 26.1096L25.8308 26.1011ZM15.3208 26.3845C15.3296 25.6182 15.3953 24.8719 15.5501 24.1227C15.9342 22.2697 16.7682 20.6418 17.9907 19.1876C18.1718 18.9725 18.3061 18.944 18.515 19.1534C19.0904 19.7316 19.6819 20.2957 20.2662 20.8654C20.8883 21.4707 20.8766 21.4636 20.3815 22.1757C19.2248 23.8407 18.8027 25.6852 19.162 27.6536C19.5286 29.659 20.5787 31.2955 22.3065 32.4691C24.8069 34.1668 27.4811 34.3791 30.205 33.0887C32.4411 32.029 33.8081 30.2486 34.3485 27.8572C34.721 26.2107 34.4698 24.6654 33.7614 23.1642C33.018 21.5875 31.816 20.431 30.2459 19.6419C29.0571 19.0451 27.7747 18.7674 26.4427 18.84C25.0654 18.9141 23.7656 19.2901 22.6059 20.0507C22.4759 20.1361 22.3605 20.1361 22.2466 20.025C21.474 19.2702 20.6999 18.5167 19.9258 17.7633C19.7856 17.6265 19.774 17.4998 19.9521 17.3844C20.1552 17.2548 20.3596 17.128 20.5612 16.9956C22.4029 15.792 24.452 15.2337 26.6501 15.2024C29.0498 15.1682 31.2595 15.8163 33.2473 17.1323C34.7385 18.1208 35.9317 19.3841 36.8081 20.9209C37.5792 22.2712 38.0364 23.7211 38.1999 25.2579C38.346 26.6266 38.235 27.9783 37.8596 29.3C37.3733 31.0135 36.5233 32.5432 35.2906 33.8635C34.0754 35.1653 32.628 36.1423 30.9484 36.7804C29.1827 37.4527 27.3512 37.6193 25.4685 37.4413C23.7495 37.2789 22.1561 36.7562 20.7262 35.8489C17.2239 33.627 15.4201 30.458 15.3194 26.3845H15.3208Z" fill="#E2344B"/>
<circle cx="26.3956" cy="26.3956" r="25.8956" transform="matrix(-1 0 0 1 52.7911 0)" stroke="#E2344B"/>
</svg>
