<svg width="53" height="53" viewBox="0 0 53 53" fill="none" xmlns="http://www.w3.org/2000/svg">
<circle cx="26.3956" cy="26.3956" r="25.8956" transform="matrix(-1 0 0 1 52.7911 0)" stroke="#782FF5"/>
<path d="M25.9791 42.6983C35.0197 42.7654 42.6937 35.4448 42.6987 26.0232C42.7038 16.7607 35.2475 9.30612 25.9992 9.31617C16.8681 9.32623 9.26445 16.6166 9.31637 26.1287C9.36829 35.5638 17.0641 42.7419 25.9791 42.6983ZM28.2518 18.2838C29.2483 18.2838 29.9316 18.2972 30.615 18.2771C30.9265 18.2687 31.1341 18.386 31.3318 18.6155C31.8744 19.2506 32.4305 19.8755 32.9949 20.4921C33.1875 20.7016 33.3198 20.8608 33.0217 21.092C32.7822 21.278 32.6264 21.6232 32.2529 21.2428C31.8041 20.787 31.3083 20.3765 30.8394 19.9409C30.6317 19.7482 30.424 19.6661 30.1226 19.7331C29.389 19.899 28.6471 20.028 27.9068 20.1637C27.4194 20.2525 27.4043 20.2592 27.669 20.6932C28.2685 21.6818 28.8681 22.6704 29.4912 23.6455C29.6871 23.9522 29.6653 24.0896 29.3337 24.2806C26.9521 25.6512 24.5086 26.9045 22.0751 28.1729C21.8172 28.307 21.6313 28.4812 21.4872 28.7376C20.7872 29.9892 20.067 31.2308 19.3669 32.4841C19.2179 32.7505 19.0655 32.8243 18.8126 32.6349C18.7472 32.5863 18.6685 32.5428 18.5898 32.521C18.2331 32.4238 18.2481 32.2328 18.3821 31.9362C19.0571 30.4383 19.717 28.9319 20.3718 27.4239C20.5008 27.1274 20.7084 26.9246 20.953 26.7319C22.1588 25.7852 23.3563 24.8268 24.5639 23.8835C24.79 23.7059 24.8419 23.5249 24.8117 23.2401C24.7481 22.6586 24.4784 22.2079 24.1251 21.7589C23.842 21.4003 23.6109 21.3618 23.2173 21.5545C22.2911 22.0052 21.3415 22.4107 20.402 22.8363C20.2311 22.9133 20.062 22.9552 19.8761 22.8999C19.0738 22.6637 18.2733 22.4207 17.466 22.2012C17.054 22.089 17.2533 21.8158 17.2801 21.598C17.3086 21.3651 17.3823 21.164 17.7089 21.2428C18.156 21.35 18.6183 21.402 19.0588 21.5293C19.6131 21.6885 20.0167 21.536 20.4555 21.1607C21.3214 20.4201 22.065 19.4784 23.2793 19.2355C23.5506 19.1819 23.8186 19.0897 24.0765 18.9858C25.5202 18.4061 27.0041 18.0877 28.2551 18.2804L28.2518 18.2838ZM36.0313 31.452C36.0062 31.447 35.9526 31.4369 35.8973 31.4252C34.05 31.0063 32.2027 30.5857 30.3537 30.1702C30.0706 30.1065 29.8529 29.9792 29.6653 29.7429C28.8263 28.684 27.9755 27.6334 27.1146 26.5912C26.9354 26.375 26.9253 26.2628 27.1833 26.1204C27.9905 25.6797 28.7928 25.229 29.5916 24.7732C29.8261 24.6392 29.9149 24.6877 29.9919 24.9508C30.3168 26.0734 30.6736 27.1877 30.9985 28.3103C31.0789 28.5851 31.2246 28.7242 31.4892 28.8096C32.9865 29.2955 34.4804 29.7949 35.976 30.2891C36.5773 30.4885 36.5806 30.4869 36.383 31.0934C36.3294 31.2559 36.3261 31.4738 36.0313 31.4503V31.452ZM14.3073 34.4764C14.3961 34.4429 14.4329 34.4177 14.4714 34.4177C16.4243 34.4144 18.3771 34.4177 20.3299 34.411C20.6314 34.411 20.6582 34.592 20.6582 34.8249C20.6548 36.2189 20.6498 37.6113 20.6615 39.0054C20.6649 39.3405 20.5577 39.3841 20.2663 39.2618C19.3753 38.8848 18.5412 38.4106 17.7491 37.861C16.4209 36.9411 15.2703 35.8386 14.309 34.478L14.3073 34.4764ZM34.74 34.411C35.5908 34.411 36.4416 34.4093 37.2924 34.4144C37.4097 34.4144 37.5721 34.354 37.6358 34.4898C37.6961 34.6221 37.552 34.7126 37.48 34.8064C36.043 36.6546 34.2677 38.0838 32.1491 39.0858C31.8543 39.2249 31.7237 39.2132 31.727 38.8395C31.7388 37.5158 31.7388 36.1921 31.727 34.8684C31.7237 34.5233 31.8443 34.401 32.1893 34.4077C33.0401 34.4244 33.8909 34.4127 34.7417 34.4127L34.74 34.411ZM24.3646 16.9634C24.3646 17.8867 23.6812 18.5787 22.7701 18.5803C21.8624 18.582 21.1322 17.8515 21.1288 16.9366C21.1255 16.0636 21.8691 15.3197 22.7534 15.3063C23.6544 15.2929 24.3646 16.0234 24.3629 16.9634H24.3646Z" fill="#782FF5"/>
</svg>
